<svg width="88" height="88" viewBox="0 0 88 88" fill="none" xmlns="http://www.w3.org/2000/svg">
<path d="M10.8508 53.9C8.40197 48.4013 8.23776 42.1551 10.3943 36.5353C12.5509 30.9155 16.8515 26.3827 22.3502 23.9338C27.8489 21.485 34.0952 21.3207 39.7149 23.4773C45.3347 25.6339 49.8676 29.9345 52.3164 35.4332L57.702 47.5288L65.0236 54.6524C65.4094 55.0285 65.6972 55.4933 65.862 56.0062C66.0268 56.5191 66.0634 57.0646 65.9688 57.595C65.8742 58.1254 65.6512 58.6245 65.3192 59.0488C64.9872 59.4731 64.5564 59.8097 64.0644 60.0292L21.2656 79.0856C20.7732 79.3045 20.2347 79.3994 19.6971 79.3621C19.1595 79.3248 18.6392 79.1564 18.1817 78.8717C17.7243 78.5869 17.3434 78.1945 17.0726 77.7286C16.8018 77.2628 16.6491 76.7377 16.628 76.1992L16.232 65.9912L10.8508 53.9ZM38.8524 76.2828C39.7087 77.5757 40.9955 78.5231 42.4842 78.9569C43.973 79.3908 45.5674 79.2828 46.9841 78.6523C48.4008 78.0218 49.5481 76.9095 50.2223 75.513C50.8965 74.1165 51.0538 72.5263 50.6664 71.0248L38.8524 76.2828ZM53.1788 20.8032C53.5057 20.3203 54.011 19.9869 54.5836 19.8763C55.1562 19.7658 55.7492 19.8871 56.2324 20.2136C63.3076 24.9876 68.1784 31.8208 68.9396 39.6792C69.01 40.3832 69.0452 41.0975 69.0452 41.822C69.0452 42.4055 68.8134 42.9651 68.4009 43.3776C67.9883 43.7902 67.4287 44.022 66.8452 44.022C66.2617 44.022 65.7022 43.7902 65.2896 43.3776C64.877 42.9651 64.6452 42.4055 64.6452 41.822C64.6438 41.2489 64.6145 40.6762 64.5572 40.106C63.9588 33.8668 60.0516 28.1028 53.7684 23.8568C53.2855 23.5299 52.9521 23.0246 52.8416 22.452C52.731 21.8795 52.8523 21.2864 53.1788 20.8032ZM55.3348 9.86921C55.4858 9.62264 55.6839 9.40826 55.9178 9.23831C56.1517 9.06835 56.4168 8.94617 56.6979 8.87875C56.9791 8.81132 57.2708 8.79997 57.5563 8.84535C57.8418 8.89073 58.1156 8.99194 58.362 9.14321C69.1772 15.7696 78.514 25.8852 79.2004 43.9208C79.2226 44.5043 79.0121 45.0727 78.6152 45.5009C78.2183 45.9292 77.6675 46.1822 77.084 46.2044C76.5005 46.2266 75.9322 46.0161 75.5039 45.6192C75.0756 45.2223 74.8226 44.6715 74.8004 44.088C74.1844 27.9136 66.0004 18.9816 56.0608 12.892C55.5641 12.5871 55.2086 12.0975 55.0725 11.5308C54.9364 10.964 55.0307 10.3665 55.3348 9.86921Z" fill="black"/>
</svg>
