<svg width="133" height="133" viewBox="0 0 133 133" fill="none" xmlns="http://www.w3.org/2000/svg">
<path fill-rule="evenodd" clip-rule="evenodd" d="M41.5626 26.3229C41.5626 25.1121 54.0757 16.625 66.5001 16.625C78.9246 16.625 91.4376 25.1121 91.4376 26.3229C91.4376 30.6454 90.9777 33.2057 90.5898 34.5994C90.3321 35.5138 89.4759 36.0208 88.5255 36.0208H44.4748C43.5244 36.0208 42.6682 35.5138 42.4105 34.5994C42.0226 33.2057 41.5626 30.6454 41.5626 26.3229ZM62.3439 24.9375C61.609 24.9375 60.9042 25.2294 60.3846 25.7491C59.865 26.2687 59.5731 26.9735 59.5731 27.7083C59.5731 28.4432 59.865 29.148 60.3846 29.6676C60.9042 30.1872 61.609 30.4792 62.3439 30.4792H70.6564C71.3913 30.4792 72.096 30.1872 72.6157 29.6676C73.1353 29.148 73.4272 28.4432 73.4272 27.7083C73.4272 26.9735 73.1353 26.2687 72.6157 25.7491C72.096 25.2294 71.3913 24.9375 70.6564 24.9375H62.3439ZM44.4388 53.2499C35.2119 50.3959 37.5394 45.2976 41.0583 41.5625H92.7122C95.5274 45.159 97.0375 50.0108 88.5283 52.9146C88.6206 53.7366 88.6668 54.5706 88.6668 55.4167C88.6656 58.4182 88.0548 61.3883 86.8715 64.1467C85.6882 66.9052 83.957 69.3946 81.7828 71.464C79.6087 73.5334 77.0369 75.1397 74.2235 76.1855C71.41 77.2313 68.4134 77.6948 65.4155 77.5479C62.4175 77.4011 59.4806 76.6469 56.7828 75.3311C54.0851 74.0153 51.6826 72.1653 49.7212 69.8932C47.7597 67.6212 46.2801 64.9745 45.3721 62.1136C44.4641 59.2527 44.1466 56.2372 44.4388 53.2499ZM65.7465 55.4167C73.067 55.4167 78.7417 55.0287 83.0919 54.3527C83.1141 54.7036 83.1251 55.0583 83.1251 55.4167C83.1232 57.6354 82.6771 59.8313 81.8132 61.8749C80.9494 63.9186 79.6852 65.7686 78.0951 67.3161C76.5051 68.8635 74.6214 70.077 72.5551 70.8851C70.4887 71.6932 68.2816 72.0795 66.0636 72.0212C63.8456 71.963 61.6618 71.4613 59.6407 70.5459C57.6196 69.6304 55.8022 68.3197 54.2956 66.6909C52.789 65.0621 51.6237 63.1483 50.8683 61.0621C50.1129 58.9759 49.7828 56.7596 49.8973 54.5438C53.951 55.1036 59.1463 55.4167 65.7465 55.4167ZM89.8222 95.8708C87.3163 91.9603 83.8666 88.7431 79.791 86.5157C75.7153 84.2883 71.1447 83.1223 66.5001 83.125C61.8536 83.1215 57.281 84.2877 53.2037 86.5162C49.1265 88.7446 45.6758 91.9636 43.1697 95.8764C42.2376 94.4455 40.8097 93.4094 39.1603 92.967L33.8071 91.5345C32.0327 91.0588 30.1421 91.3074 28.551 92.2255C26.9599 93.1437 25.7987 94.6563 25.3228 96.4305L23.1726 104.46C22.9371 105.339 22.877 106.256 22.9958 107.158C23.1145 108.06 23.4098 108.929 23.8647 109.717C24.3196 110.505 24.9253 111.196 25.6471 111.749C26.3689 112.303 27.1927 112.709 28.0714 112.945L33.4219 114.38C34.322 114.621 35.2616 114.678 36.1842 114.548C37.1069 114.417 37.9938 114.102 38.7918 113.621C38.794 114.356 39.088 115.06 39.6092 115.578C40.1304 116.096 40.8361 116.386 41.5709 116.383C42.3058 116.381 43.0097 116.087 43.5278 115.566C44.0459 115.045 44.3357 114.339 44.3335 113.604V110.833C44.3335 109.777 44.4055 108.74 44.5496 107.722L58.969 111.587C59.6383 113.02 60.7024 114.232 62.0364 115.081C63.3703 115.93 64.9188 116.381 66.5001 116.381C68.0814 116.381 69.6299 115.93 70.9639 115.081C72.2978 114.232 73.3619 113.02 74.0313 111.587L88.4507 107.722C88.5929 108.74 88.665 109.777 88.6668 110.833V113.604C88.6631 114.339 88.9515 115.045 89.4686 115.567C89.9856 116.09 90.6889 116.385 91.4238 116.389C92.1586 116.393 92.8649 116.104 93.3871 115.587C93.9093 115.07 94.2048 114.367 94.2085 113.632C95.7601 114.563 97.6776 114.887 99.5645 114.38L104.918 112.947C105.797 112.712 106.62 112.306 107.342 111.752C108.064 111.198 108.67 110.508 109.124 109.72C109.579 108.932 109.875 108.062 109.993 107.16C110.112 106.258 110.052 105.342 109.817 104.463L107.664 96.4333C107.188 94.659 106.026 93.1465 104.435 92.2283C102.844 91.3101 100.954 91.0616 99.1793 91.5372L93.8261 92.9698C92.1805 93.4106 90.755 94.4452 89.8222 95.8708ZM46.0043 102.371C47.5019 98.7521 49.9306 95.5938 53.0437 93.217C56.1568 90.8402 59.8435 89.3295 63.7293 88.8385V100.224C62.4868 100.663 61.3664 101.391 60.4607 102.348C59.555 103.306 58.8898 104.465 58.5201 105.729L46.0043 102.371ZM86.996 102.371C85.4983 98.7521 83.0697 95.5938 79.9565 93.217C76.8434 90.8402 73.1568 89.3295 69.271 88.8385V100.224C71.7758 101.11 73.732 103.161 74.4801 105.729L86.996 102.371ZM66.5001 110.833C67.235 110.833 67.9398 110.541 68.4594 110.022C68.979 109.502 69.271 108.797 69.271 108.062C69.271 107.328 68.979 106.623 68.4594 106.103C67.9398 105.584 67.235 105.292 66.5001 105.292C65.7653 105.292 65.0605 105.584 64.5409 106.103C64.0212 106.623 63.7293 107.328 63.7293 108.062C63.7293 108.797 64.0212 109.502 64.5409 110.022C65.0605 110.541 65.7653 110.833 66.5001 110.833Z" fill="#0C3A2D"/>
</svg>
