<svg width="121" height="121" viewBox="0 0 121 121" fill="none" xmlns="http://www.w3.org/2000/svg">
<path d="M60.5007 50.4167C71.6384 50.4167 80.6673 41.3877 80.6673 30.25C80.6673 19.1123 71.6384 10.0833 60.5007 10.0833C49.3629 10.0833 40.334 19.1123 40.334 30.25C40.334 41.3877 49.3629 50.4167 60.5007 50.4167Z" stroke="#0C3A2D" stroke-width="1.5"/>
<path d="M100.824 90.75C100.83 89.9232 100.834 89.0829 100.834 88.2292C100.834 75.7006 82.7744 65.5417 60.5003 65.5417C38.2262 65.5417 20.167 75.7006 20.167 88.2292C20.167 100.758 20.167 110.917 60.5003 110.917C71.7483 110.917 79.8603 110.125 85.7087 108.713" stroke="#0C3A2D" stroke-width="1.5" stroke-linecap="round"/>
</svg>
