<svg width="81" height="81" viewBox="0 0 81 81" fill="none" xmlns="http://www.w3.org/2000/svg">
<path d="M40.5 47.25C41.1675 47.25 41.82 47.0521 42.375 46.6812C42.9301 46.3104 43.3626 45.7833 43.6181 45.1666C43.8735 44.5499 43.9404 43.8713 43.8102 43.2166C43.6799 42.5619 43.3585 41.9605 42.8865 41.4885C42.4145 41.0165 41.8131 40.6951 41.1584 40.5648C40.5037 40.4346 39.8251 40.5015 39.2084 40.7569C38.5917 41.0124 38.0646 41.4449 37.6938 42C37.3229 42.555 37.125 43.2075 37.125 43.875C37.125 44.7701 37.4806 45.6285 38.1135 46.2615C38.7465 46.8944 39.6049 47.25 40.5 47.25ZM57.375 47.25C58.0425 47.25 58.695 47.0521 59.25 46.6812C59.8051 46.3104 60.2376 45.7833 60.4931 45.1666C60.7485 44.5499 60.8154 43.8713 60.6852 43.2166C60.5549 42.5619 60.2335 41.9605 59.7615 41.4885C59.2895 41.0165 58.6881 40.6951 58.0334 40.5648C57.3787 40.4346 56.7001 40.5015 56.0834 40.7569C55.4667 41.0124 54.9396 41.4449 54.5688 42C54.1979 42.555 54 43.2075 54 43.875C54 44.7701 54.3556 45.6285 54.9885 46.2615C55.6214 46.8944 56.4799 47.25 57.375 47.25ZM40.5 60.75C41.1675 60.75 41.82 60.5521 42.375 60.1812C42.9301 59.8104 43.3626 59.2833 43.6181 58.6666C43.8735 58.0499 43.9404 57.3713 43.8102 56.7166C43.6799 56.0619 43.3585 55.4605 42.8865 54.9885C42.4145 54.5165 41.8131 54.1951 41.1584 54.0648C40.5037 53.9346 39.8251 54.0015 39.2084 54.2569C38.5917 54.5124 38.0646 54.9449 37.6938 55.5C37.3229 56.055 37.125 56.7075 37.125 57.375C37.125 58.2701 37.4806 59.1286 38.1135 59.7615C38.7465 60.3944 39.6049 60.75 40.5 60.75ZM57.375 60.75C58.0425 60.75 58.695 60.5521 59.25 60.1812C59.8051 59.8104 60.2376 59.2833 60.4931 58.6666C60.7485 58.0499 60.8154 57.3713 60.6852 56.7166C60.5549 56.0619 60.2335 55.4605 59.7615 54.9885C59.2895 54.5165 58.6881 54.1951 58.0334 54.0648C57.3787 53.9346 56.7001 54.0015 56.0834 54.2569C55.4667 54.5124 54.9396 54.9449 54.5688 55.5C54.1979 56.055 54 56.7075 54 57.375C54 58.2701 54.3556 59.1286 54.9885 59.7615C55.6214 60.3944 56.4799 60.75 57.375 60.75ZM23.625 47.25C24.2925 47.25 24.945 47.0521 25.5 46.6812C26.0551 46.3104 26.4876 45.7833 26.7431 45.1666C26.9985 44.5499 27.0654 43.8713 26.9352 43.2166C26.8049 42.5619 26.4835 41.9605 26.0115 41.4885C25.5395 41.0165 24.9381 40.6951 24.2834 40.5648C23.6287 40.4346 22.9501 40.5015 22.3334 40.7569C21.7167 41.0124 21.1896 41.4449 20.8188 42C20.4479 42.555 20.25 43.2075 20.25 43.875C20.25 44.7701 20.6056 45.6285 21.2385 46.2615C21.8715 46.8944 22.7299 47.25 23.625 47.25ZM64.125 13.5H60.75V10.125C60.75 9.22989 60.3944 8.37145 59.7615 7.73851C59.1286 7.10558 58.2701 6.75 57.375 6.75C56.4799 6.75 55.6214 7.10558 54.9885 7.73851C54.3556 8.37145 54 9.22989 54 10.125V13.5H27V10.125C27 9.22989 26.6444 8.37145 26.0115 7.73851C25.3785 7.10558 24.5201 6.75 23.625 6.75C22.7299 6.75 21.8715 7.10558 21.2385 7.73851C20.6056 8.37145 20.25 9.22989 20.25 10.125V13.5H16.875C14.1897 13.5 11.6143 14.5667 9.71554 16.4655C7.81674 18.3644 6.75 20.9397 6.75 23.625V64.125C6.75 66.8103 7.81674 69.3857 9.71554 71.2845C11.6143 73.1833 14.1897 74.25 16.875 74.25H64.125C66.8103 74.25 69.3857 73.1833 71.2845 71.2845C73.1833 69.3857 74.25 66.8103 74.25 64.125V23.625C74.25 20.9397 73.1833 18.3644 71.2845 16.4655C69.3857 14.5667 66.8103 13.5 64.125 13.5ZM67.5 64.125C67.5 65.0201 67.1444 65.8786 66.5115 66.5115C65.8786 67.1444 65.0201 67.5 64.125 67.5H16.875C15.9799 67.5 15.1215 67.1444 14.4885 66.5115C13.8556 65.8786 13.5 65.0201 13.5 64.125V33.75H67.5V64.125ZM67.5 27H13.5V23.625C13.5 22.7299 13.8556 21.8715 14.4885 21.2385C15.1215 20.6056 15.9799 20.25 16.875 20.25H64.125C65.0201 20.25 65.8786 20.6056 66.5115 21.2385C67.1444 21.8715 67.5 22.7299 67.5 23.625V27ZM23.625 60.75C24.2925 60.75 24.945 60.5521 25.5 60.1812C26.0551 59.8104 26.4876 59.2833 26.7431 58.6666C26.9985 58.0499 27.0654 57.3713 26.9352 56.7166C26.8049 56.0619 26.4835 55.4605 26.0115 54.9885C25.5395 54.5165 24.9381 54.1951 24.2834 54.0648C23.6287 53.9346 22.9501 54.0015 22.3334 54.2569C21.7167 54.5124 21.1896 54.9449 20.8188 55.5C20.4479 56.055 20.25 56.7075 20.25 57.375C20.25 58.2701 20.6056 59.1286 21.2385 59.7615C21.8715 60.3944 22.7299 60.75 23.625 60.75Z" fill="black"/>
</svg>
