<svg width="24" height="24" viewBox="0 0 24 24" fill="none" xmlns="http://www.w3.org/2000/svg">
<mask id="mask0_329_103" style="mask-type:luminance" maskUnits="userSpaceOnUse" x="1" y="1" width="22" height="22">
<path d="M12 22C13.3135 22.0016 14.6143 21.7437 15.8278 21.2411C17.0412 20.7384 18.1434 20.0009 19.071 19.071C20.0009 18.1434 20.7384 17.0412 21.2411 15.8278C21.7437 14.6143 22.0016 13.3135 22 12C22.0016 10.6866 21.7437 9.38572 21.2411 8.17225C20.7384 6.95878 20.0009 5.85659 19.071 4.92901C18.1434 3.99909 17.0412 3.26162 15.8278 2.75897C14.6143 2.25631 13.3135 1.99839 12 2.00001C10.6866 1.99839 9.38572 2.25631 8.17225 2.75897C6.95878 3.26162 5.85659 3.99909 4.92901 4.92901C3.99909 5.85659 3.26162 6.95878 2.75897 8.17225C2.25631 9.38572 1.99839 10.6866 2.00001 12C1.99839 13.3135 2.25631 14.6143 2.75897 15.8278C3.26162 17.0412 3.99909 18.1434 4.92901 19.071C5.85659 20.0009 6.95878 20.7384 8.17225 21.2411C9.38572 21.7437 10.6866 22.0016 12 22Z" fill="white" stroke="white" stroke-width="2" stroke-linejoin="round"/>
<path fill-rule="evenodd" clip-rule="evenodd" d="M12 18.5C12.3315 18.5 12.6495 18.3683 12.8839 18.1339C13.1183 17.8995 13.25 17.5815 13.25 17.25C13.25 16.9185 13.1183 16.6005 12.8839 16.3661C12.6495 16.1317 12.3315 16 12 16C11.6685 16 11.3505 16.1317 11.1161 16.3661C10.8817 16.6005 10.75 16.9185 10.75 17.25C10.75 17.5815 10.8817 17.8995 11.1161 18.1339C11.3505 18.3683 11.6685 18.5 12 18.5Z" fill="black"/>
<path d="M12 6V14" stroke="black" stroke-width="2" stroke-linecap="round" stroke-linejoin="round"/>
</mask>
<g mask="url(#mask0_329_103)">
<path d="M0 0H24V24H0V0Z" fill="black"/>
</g>
</svg>
