<svg width="54" height="54" viewBox="0 0 54 54" fill="none" xmlns="http://www.w3.org/2000/svg">
<path d="M24.75 13.5C22.3875 13.5 20.259 14.1473 18.3645 15.4418C16.47 16.7363 15.111 18.4328 14.2875 20.5313C14.0625 21.0938 13.6972 21.516 13.1917 21.798C12.6862 22.08 12.1328 22.164 11.5312 22.05C10.9297 21.936 10.4512 21.6458 10.0957 21.1793C9.74025 20.7128 9.65625 20.2155 9.84375 19.6875C10.8562 16.5375 12.7125 13.9688 15.4125 11.9813C18.1125 9.99376 21.225 9.00001 24.75 9.00001C26.9625 9.00001 29.0347 9.42151 30.9667 10.2645C32.8987 11.1075 34.5765 12.261 36 13.725V11.25C36 10.6125 36.216 10.0785 36.648 9.64801C37.08 9.21751 37.614 9.00151 38.25 9.00001C38.886 8.99851 39.4207 9.21451 39.8542 9.64801C40.2877 10.0815 40.503 10.6155 40.5 11.25V20.25C40.5 20.8875 40.284 21.4223 39.852 21.8543C39.42 22.2863 38.886 22.5015 38.25 22.5H29.25C28.6125 22.5 28.0785 22.284 27.648 21.852C27.2175 21.42 27.0015 20.886 27 20.25C26.9985 19.614 27.2145 19.08 27.648 18.648C28.0815 18.216 28.6155 18 29.25 18H33.75C32.6625 16.65 31.3597 15.5625 29.8417 14.7375C28.3237 13.9125 26.6265 13.5 24.75 13.5ZM24.75 40.5C22.5375 40.5 20.466 40.0785 18.5355 39.2355C16.605 38.3925 14.9265 37.239 13.5 35.775V38.25C13.5 38.8875 13.284 39.4223 12.852 39.8543C12.42 40.2863 11.886 40.5015 11.25 40.5C10.614 40.4985 10.08 40.2825 9.648 39.852C9.216 39.4215 9 38.8875 9 38.25V29.25C9 28.6125 9.216 28.0785 9.648 27.648C10.08 27.2175 10.614 27.0015 11.25 27H20.25C20.8875 27 21.4223 27.216 21.8543 27.648C22.2863 28.08 22.5015 28.614 22.5 29.25C22.4985 29.886 22.2825 30.4208 21.852 30.8543C21.4215 31.2878 20.8875 31.503 20.25 31.5H15.75C16.8375 32.85 18.141 33.9375 19.6605 34.7625C21.18 35.5875 22.8765 36 24.75 36C27.075 36 29.166 35.3813 31.023 34.1438C32.88 32.9063 34.239 31.275 35.1 29.25C35.3625 28.65 35.7473 28.1715 36.2543 27.8145C36.7613 27.4575 37.3328 27.336 37.9688 27.45C38.6063 27.6 39.075 27.9375 39.375 28.4625C39.675 28.9875 39.7313 29.55 39.5438 30.15C39.2813 30.9 38.9715 31.6035 38.6145 32.2605C38.2575 32.9175 37.836 33.564 37.35 34.2L45.675 42.525C46.0875 42.9375 46.2938 43.4625 46.2938 44.1C46.2938 44.7375 46.0875 45.2625 45.675 45.675C45.2625 46.0875 44.7375 46.2938 44.1 46.2938C43.4625 46.2938 42.9375 46.0875 42.525 45.675L34.2 37.35C32.85 38.3625 31.3785 39.141 29.7855 39.6855C28.1925 40.23 26.514 40.5015 24.75 40.5Z" fill="black"/>
</svg>
