<svg width="22" height="22" viewBox="0 0 22 22" fill="none" xmlns="http://www.w3.org/2000/svg">
<path d="M2.71246 13.475C2.10025 12.1003 2.0592 10.5388 2.59833 9.13383C3.13747 7.72889 4.21264 6.59566 5.58731 5.98345C6.96198 5.37124 8.52355 5.33019 9.92849 5.86933C11.3334 6.40846 12.4666 7.48363 13.0789 8.8583L14.4253 11.8822L16.2557 13.6631C16.3521 13.7571 16.4241 13.8733 16.4653 14.0016C16.5064 14.1298 16.5156 14.2662 16.492 14.3987C16.4683 14.5313 16.4125 14.6561 16.3296 14.7622C16.2466 14.8683 16.1389 14.9524 16.0159 15.0073L5.31616 19.7714C5.19305 19.8261 5.05842 19.8498 4.92403 19.8405C4.78963 19.8312 4.65957 19.7891 4.54519 19.7179C4.43082 19.6467 4.33562 19.5486 4.26791 19.4322C4.2002 19.3157 4.16204 19.1844 4.15676 19.0498L4.05776 16.4978L2.71246 13.475ZM9.71286 19.0707C9.92692 19.3939 10.2486 19.6308 10.6208 19.7392C10.993 19.8477 11.3916 19.8207 11.7458 19.6631C12.0999 19.5054 12.3868 19.2274 12.5553 18.8783C12.7239 18.5291 12.7632 18.1316 12.6664 17.7562L9.71286 19.0707ZM13.2945 5.2008C13.3762 5.08007 13.5025 4.99673 13.6456 4.96909C13.7888 4.94145 13.9371 4.97177 14.0579 5.0534C15.8267 6.2469 17.0444 7.9552 17.2347 9.9198C17.2523 10.0958 17.2611 10.2744 17.2611 10.4555C17.2611 10.6014 17.2031 10.7413 17.1 10.8444C16.9968 10.9476 16.8569 11.0055 16.7111 11.0055C16.5652 11.0055 16.4253 10.9476 16.3222 10.8444C16.219 10.7413 16.1611 10.6014 16.1611 10.4555C16.1607 10.3122 16.1534 10.1691 16.1391 10.0265C15.9895 8.4667 15.0127 7.0257 13.4419 5.9642C13.3211 5.88248 13.2378 5.75616 13.2101 5.61301C13.1825 5.46986 13.2128 5.3216 13.2945 5.2008ZM13.8335 2.4673C13.8712 2.40566 13.9207 2.35206 13.9792 2.30958C14.0377 2.26709 14.104 2.23654 14.1742 2.21969C14.2445 2.20283 14.3174 2.19999 14.3888 2.21134C14.4602 2.22268 14.5287 2.24799 14.5903 2.2858C17.2941 3.9424 19.6283 6.4713 19.7999 10.9802C19.8054 11.1261 19.7528 11.2682 19.6535 11.3752C19.5543 11.4823 19.4166 11.5456 19.2708 11.5511C19.1249 11.5566 18.9828 11.504 18.8757 11.4048C18.7687 11.3056 18.7054 11.1679 18.6999 11.022C18.5459 6.9784 16.4999 4.7454 14.015 3.223C13.8908 3.14678 13.8019 3.02438 13.7679 2.8827C13.7338 2.74101 13.7574 2.59161 13.8335 2.4673Z" fill="black"/>
</svg>
