<svg width="21" height="21" viewBox="0 0 21 21" fill="none" xmlns="http://www.w3.org/2000/svg">
<path d="M10.5 12.25C10.6731 12.25 10.8422 12.1987 10.9861 12.1025C11.13 12.0064 11.2422 11.8697 11.3084 11.7098C11.3746 11.55 11.392 11.374 11.3582 11.2043C11.3244 11.0346 11.2411 10.8787 11.1187 10.7563C10.9963 10.6339 10.8404 10.5506 10.6707 10.5168C10.501 10.4831 10.325 10.5004 10.1652 10.5666C10.0053 10.6328 9.86861 10.745 9.77247 10.8889C9.67632 11.0328 9.625 11.2019 9.625 11.375C9.625 11.6071 9.71719 11.8296 9.88128 11.9937C10.0454 12.1578 10.2679 12.25 10.5 12.25ZM14.875 12.25C15.0481 12.25 15.2172 12.1987 15.3611 12.1025C15.505 12.0064 15.6172 11.8697 15.6834 11.7098C15.7496 11.55 15.767 11.374 15.7332 11.2043C15.6994 11.0346 15.6161 10.8787 15.4937 10.7563C15.3714 10.6339 15.2154 10.5506 15.0457 10.5168C14.876 10.4831 14.7 10.5004 14.5402 10.5666C14.3803 10.6328 14.2436 10.745 14.1475 10.8889C14.0513 11.0328 14 11.2019 14 11.375C14 11.6071 14.0922 11.8296 14.2563 11.9937C14.4204 12.1578 14.6429 12.25 14.875 12.25ZM10.5 15.75C10.6731 15.75 10.8422 15.6987 10.9861 15.6025C11.13 15.5064 11.2422 15.3697 11.3084 15.2098C11.3746 15.05 11.392 14.874 11.3582 14.7043C11.3244 14.5346 11.2411 14.3787 11.1187 14.2563C10.9963 14.1339 10.8404 14.0506 10.6707 14.0168C10.501 13.9831 10.325 14.0004 10.1652 14.0666C10.0053 14.1328 9.86861 14.245 9.77247 14.3889C9.67632 14.5328 9.625 14.7019 9.625 14.875C9.625 15.1071 9.71719 15.3296 9.88128 15.4937C10.0454 15.6578 10.2679 15.75 10.5 15.75ZM14.875 15.75C15.0481 15.75 15.2172 15.6987 15.3611 15.6025C15.505 15.5064 15.6172 15.3697 15.6834 15.2098C15.7496 15.05 15.767 14.874 15.7332 14.7043C15.6994 14.5346 15.6161 14.3787 15.4937 14.2563C15.3714 14.1339 15.2154 14.0506 15.0457 14.0168C14.876 13.9831 14.7 14.0004 14.5402 14.0666C14.3803 14.1328 14.2436 14.245 14.1475 14.3889C14.0513 14.5328 14 14.7019 14 14.875C14 15.1071 14.0922 15.3296 14.2563 15.4937C14.4204 15.6578 14.6429 15.75 14.875 15.75ZM6.125 12.25C6.29806 12.25 6.46723 12.1987 6.61112 12.1025C6.75502 12.0064 6.86717 11.8697 6.9334 11.7098C6.99962 11.55 7.01695 11.374 6.98319 11.2043C6.94943 11.0346 6.86609 10.8787 6.74372 10.7563C6.62135 10.6339 6.46544 10.5506 6.2957 10.5168C6.12597 10.4831 5.95004 10.5004 5.79015 10.5666C5.63027 10.6328 5.49361 10.745 5.39746 10.8889C5.30132 11.0328 5.25 11.2019 5.25 11.375C5.25 11.6071 5.34219 11.8296 5.50628 11.9937C5.67038 12.1578 5.89294 12.25 6.125 12.25ZM16.625 3.5H15.75V2.625C15.75 2.39294 15.6578 2.17038 15.4937 2.00628C15.3296 1.84219 15.1071 1.75 14.875 1.75C14.6429 1.75 14.4204 1.84219 14.2563 2.00628C14.0922 2.17038 14 2.39294 14 2.625V3.5H7V2.625C7 2.39294 6.90781 2.17038 6.74372 2.00628C6.57962 1.84219 6.35707 1.75 6.125 1.75C5.89294 1.75 5.67038 1.84219 5.50628 2.00628C5.34219 2.17038 5.25 2.39294 5.25 2.625V3.5H4.375C3.67881 3.5 3.01113 3.77656 2.51884 4.26885C2.02656 4.76113 1.75 5.42881 1.75 6.125V16.625C1.75 17.3212 2.02656 17.9889 2.51884 18.4812C3.01113 18.9734 3.67881 19.25 4.375 19.25H16.625C17.3212 19.25 17.9889 18.9734 18.4812 18.4812C18.9734 17.9889 19.25 17.3212 19.25 16.625V6.125C19.25 5.42881 18.9734 4.76113 18.4812 4.26885C17.9889 3.77656 17.3212 3.5 16.625 3.5ZM17.5 16.625C17.5 16.8571 17.4078 17.0796 17.2437 17.2437C17.0796 17.4078 16.8571 17.5 16.625 17.5H4.375C4.14294 17.5 3.92038 17.4078 3.75628 17.2437C3.59219 17.0796 3.5 16.8571 3.5 16.625V8.75H17.5V16.625ZM17.5 7H3.5V6.125C3.5 5.89294 3.59219 5.67038 3.75628 5.50628C3.92038 5.34219 4.14294 5.25 4.375 5.25H16.625C16.8571 5.25 17.0796 5.34219 17.2437 5.50628C17.4078 5.67038 17.5 5.89294 17.5 6.125V7ZM6.125 15.75C6.29806 15.75 6.46723 15.6987 6.61112 15.6025C6.75502 15.5064 6.86717 15.3697 6.9334 15.2098C6.99962 15.05 7.01695 14.874 6.98319 14.7043C6.94943 14.5346 6.86609 14.3787 6.74372 14.2563C6.62135 14.1339 6.46544 14.0506 6.2957 14.0168C6.12597 13.9831 5.95004 14.0004 5.79015 14.0666C5.63027 14.1328 5.49361 14.245 5.39746 14.3889C5.30132 14.5328 5.25 14.7019 5.25 14.875C5.25 15.1071 5.34219 15.3296 5.50628 15.4937C5.67038 15.6578 5.89294 15.75 6.125 15.75Z" fill="black" fill-opacity="0.6"/>
</svg>
