<svg width="34" height="33" viewBox="0 0 34 33" fill="none" xmlns="http://www.w3.org/2000/svg">
<g filter="url(#filter0_d_215_1049)">
<path d="M23.0815 16.1613C24.6549 14.0965 25.3596 11.5366 25.0547 8.99358C24.7497 6.4506 23.4575 4.11212 21.4367 2.446C19.4158 0.779875 16.8153 -0.0910236 14.1554 0.00753841C11.4956 0.1061 8.97245 1.16685 7.0909 2.97758C5.20936 4.78831 4.10814 7.21547 4.00755 9.77348C3.90696 12.3315 4.81443 14.8317 6.5484 16.7739C8.28237 18.7161 10.715 19.9571 13.3595 20.2485C16.0041 20.54 18.6655 19.8605 20.8115 18.3459H20.8098C20.8575 18.4084 20.9106 18.4683 20.9691 18.5256L27.2251 24.5418C27.5298 24.835 27.9431 24.9999 28.3742 25C28.8052 25.0001 29.2187 24.8356 29.5236 24.5426C29.8285 24.2496 29.9998 23.8521 30 23.4376C30.0002 23.023 29.8291 22.6254 29.5244 22.3322L23.2684 16.316C23.2103 16.2594 23.1478 16.2087 23.0815 16.1613ZM23.5007 10.1544C23.5007 11.2831 23.2696 12.4007 22.8204 13.4434C22.3713 14.4862 21.713 15.4336 20.8831 16.2317C20.0532 17.0298 19.068 17.6629 17.9837 18.0948C16.8994 18.5267 15.7372 18.749 14.5636 18.749C13.3899 18.749 12.2278 18.5267 11.1435 18.0948C10.0592 17.6629 9.07393 17.0298 8.24403 16.2317C7.41414 15.4336 6.75583 14.4862 6.3067 13.4434C5.85756 12.4007 5.6264 11.2831 5.6264 10.1544C5.6264 7.87496 6.56799 5.68888 8.24403 4.07708C9.92008 2.46527 12.1933 1.55977 14.5636 1.55977C16.9338 1.55977 19.207 2.46527 20.8831 4.07708C22.5591 5.68888 23.5007 7.87496 23.5007 10.1544Z" fill="#263620"/>
</g>
<defs>
<filter id="filter0_d_215_1049" x="0" y="0" width="34" height="33" filterUnits="userSpaceOnUse" color-interpolation-filters="sRGB">
<feFlood flood-opacity="0" result="BackgroundImageFix"/>
<feColorMatrix in="SourceAlpha" type="matrix" values="0 0 0 0 0 0 0 0 0 0 0 0 0 0 0 0 0 0 127 0" result="hardAlpha"/>
<feOffset dy="4"/>
<feGaussianBlur stdDeviation="2"/>
<feComposite in2="hardAlpha" operator="out"/>
<feColorMatrix type="matrix" values="0 0 0 0 0 0 0 0 0 0 0 0 0 0 0 0 0 0 0.25 0"/>
<feBlend mode="normal" in2="BackgroundImageFix" result="effect1_dropShadow_215_1049"/>
<feBlend mode="normal" in="SourceGraphic" in2="effect1_dropShadow_215_1049" result="shape"/>
</filter>
</defs>
</svg>
