<svg width="22" height="22" viewBox="0 0 22 22" fill="none" xmlns="http://www.w3.org/2000/svg">
<path d="M13.8091 1.78337C13.8458 1.70085 13.8983 1.62635 13.9637 1.56413C14.0292 1.50192 14.1062 1.4532 14.1905 1.42077C14.2748 1.38834 14.3646 1.37282 14.4549 1.37511C14.5452 1.37741 14.6341 1.39746 14.7166 1.43412C14.8761 1.50562 17.4364 2.72525 19.1537 5.60037C20.0214 7.05787 20.3871 8.54975 20.537 9.68825C20.6222 10.3413 20.6521 11.0005 20.6264 11.6586V11.6944V11.6889C20.6264 11.8712 20.5539 12.0461 20.425 12.175C20.2961 12.3039 20.1212 12.3764 19.9389 12.3764C19.7565 12.3764 19.5816 12.3039 19.4527 12.175C19.3238 12.0461 19.2514 11.8712 19.2514 11.6889V11.6201C19.272 11.1485 19.3751 8.65562 17.9726 6.30575C17.1298 4.90574 15.9536 3.73613 14.5489 2.90125C14.3137 2.76375 14.1694 2.695 14.1584 2.69087C14.0758 2.65423 14.0013 2.60168 13.9391 2.53624C13.8769 2.4708 13.8282 2.39374 13.7957 2.30947C13.7633 2.2252 13.7478 2.13536 13.7501 2.04509C13.7524 1.95482 13.7724 1.86589 13.8091 1.78337ZM13.8806 5.10125C13.9875 4.95359 14.1486 4.85443 14.3286 4.82555C14.5086 4.79667 14.6926 4.84044 14.8404 4.94725C14.8362 4.9445 15.1649 5.15075 15.5554 5.511C15.95 5.87125 16.4354 6.40887 16.8231 7.12937C17.2456 7.91944 17.4954 8.79025 17.556 9.68412C17.5606 9.76662 17.5633 9.83262 17.5642 9.88212V9.96875C17.5642 10.1511 17.4918 10.326 17.3629 10.4549C17.2339 10.5838 17.0591 10.6562 16.8767 10.6562C16.6944 10.6562 16.5195 10.5838 16.3906 10.4549C16.2617 10.326 16.1892 10.1511 16.1892 9.96875V9.96462C16.1739 9.18793 15.9698 8.42663 15.5944 7.74651C15.219 7.06639 14.6836 6.48789 14.0346 6.061C13.8869 5.95412 13.7878 5.79298 13.7589 5.61301C13.73 5.43303 13.7738 5.24896 13.8806 5.10125ZM3.48835 14.7221C2.78687 13.4607 2.60932 11.9742 2.99401 10.5831C3.37871 9.19196 4.2948 8.00781 5.5447 7.28606C6.79459 6.56431 8.27811 6.36279 9.67524 6.72498C11.0724 7.08717 12.2711 7.98404 13.013 9.22212L14.1405 11.1746L16.7612 13.0817C16.8538 13.1491 16.928 13.2386 16.9772 13.3419C17.0264 13.4453 17.0491 13.5593 17.0431 13.6736C17.0371 13.7879 17.0026 13.8989 16.9428 13.9965C16.883 14.0942 16.7998 14.1753 16.7007 14.2326L13.222 16.2401L13.2275 16.2442L9.46273 18.4167V18.4126L5.98398 20.4201C5.88479 20.4776 5.7728 20.5094 5.65819 20.5126C5.54358 20.5158 5.43 20.4902 5.32778 20.4383C5.22557 20.3864 5.13796 20.3097 5.07293 20.2153C5.00791 20.1208 4.96753 20.0116 4.95548 19.8976L4.61585 16.676L3.48835 14.7221ZM14.0937 17.3319L9.97148 19.7106C10.3304 20.1616 10.8392 20.4688 11.4055 20.5764C11.9717 20.6839 12.5578 20.5846 13.057 20.2965C13.5562 20.0084 13.9355 19.5507 14.1257 19.0066C14.316 18.4626 14.3046 17.8683 14.0937 17.3319Z" fill="#1B8A83"/>
</svg>
