<svg width="27" height="27" viewBox="0 0 27 27" fill="none" xmlns="http://www.w3.org/2000/svg">
<path d="M4.5 14.625H11.25C11.8687 14.625 12.375 14.1187 12.375 13.5V4.5C12.375 3.88125 11.8687 3.375 11.25 3.375H4.5C3.88125 3.375 3.375 3.88125 3.375 4.5V13.5C3.375 14.1187 3.88125 14.625 4.5 14.625ZM4.5 23.625H11.25C11.8687 23.625 12.375 23.1187 12.375 22.5V18C12.375 17.3813 11.8687 16.875 11.25 16.875H4.5C3.88125 16.875 3.375 17.3813 3.375 18V22.5C3.375 23.1187 3.88125 23.625 4.5 23.625ZM15.75 23.625H22.5C23.1187 23.625 23.625 23.1187 23.625 22.5V13.5C23.625 12.8813 23.1187 12.375 22.5 12.375H15.75C15.1313 12.375 14.625 12.8813 14.625 13.5V22.5C14.625 23.1187 15.1313 23.625 15.75 23.625ZM14.625 4.5V9C14.625 9.61875 15.1313 10.125 15.75 10.125H22.5C23.1187 10.125 23.625 9.61875 23.625 9V4.5C23.625 3.88125 23.1187 3.375 22.5 3.375H15.75C15.1313 3.375 14.625 3.88125 14.625 4.5Z" fill="#F29912"/>
</svg>
