<svg width="27" height="27" viewBox="0 0 27 27" fill="none" xmlns="http://www.w3.org/2000/svg">
<path fill-rule="evenodd" clip-rule="evenodd" d="M8.43749 5.34375C8.43749 5.09794 10.9777 3.375 13.5 3.375C16.0222 3.375 18.5625 5.09794 18.5625 5.34375C18.5625 6.22125 18.4691 6.741 18.3904 7.02394C18.3381 7.20956 18.1642 7.3125 17.9713 7.3125H9.02868C8.83574 7.3125 8.66193 7.20956 8.60962 7.02394C8.53086 6.741 8.43749 6.22125 8.43749 5.34375ZM12.6562 5.0625C12.5071 5.0625 12.364 5.12176 12.2585 5.22725C12.153 5.33274 12.0937 5.47582 12.0937 5.625C12.0937 5.77418 12.153 5.91726 12.2585 6.02275C12.364 6.12824 12.5071 6.1875 12.6562 6.1875H14.3437C14.4929 6.1875 14.636 6.12824 14.7415 6.02275C14.847 5.91726 14.9062 5.77418 14.9062 5.625C14.9062 5.47582 14.847 5.33274 14.7415 5.22725C14.636 5.12176 14.4929 5.0625 14.3437 5.0625H12.6562ZM9.02137 10.8101C7.14824 10.2308 7.62074 9.19575 8.33511 8.4375H18.8212C19.3927 9.16762 19.6993 10.1526 17.9719 10.7421C17.9906 10.9089 18 11.0782 18 11.25C17.9997 11.8593 17.8758 12.4623 17.6355 13.0223C17.3953 13.5823 17.0439 14.0876 16.6025 14.5077C16.1611 14.9278 15.639 15.2539 15.0679 15.4662C14.4967 15.6785 13.8884 15.7726 13.2798 15.7428C12.6712 15.713 12.075 15.5599 11.5273 15.2928C10.9796 15.0257 10.4919 14.6501 10.0937 14.1889C9.69554 13.7276 9.39518 13.1903 9.21084 12.6095C9.02651 12.0287 8.96205 11.4166 9.02137 10.8101ZM13.347 11.25C14.8331 11.25 15.9851 11.1712 16.8682 11.034C16.8727 11.1052 16.875 11.1772 16.875 11.25C16.8746 11.7004 16.784 12.1462 16.6087 12.5611C16.4333 12.976 16.1767 13.3515 15.8539 13.6657C15.5311 13.9798 15.1487 14.2262 14.7292 14.3902C14.3097 14.5543 13.8616 14.6327 13.4114 14.6208C12.9611 14.609 12.5178 14.5072 12.1075 14.3213C11.6972 14.1355 11.3282 13.8694 11.0224 13.5388C10.7165 13.2081 10.48 12.8196 10.3266 12.3961C10.1733 11.9726 10.1062 11.5226 10.1295 11.0728C10.9524 11.1864 12.0071 11.25 13.347 11.25ZM18.2346 19.4625C17.7258 18.6686 17.0255 18.0155 16.1981 17.5633C15.3707 17.1112 14.4429 16.8745 13.5 16.875C12.5567 16.8743 11.6284 17.111 10.8007 17.5634C9.973 18.0158 9.27249 18.6693 8.76374 19.4636C8.5745 19.1732 8.28464 18.9628 7.9498 18.873L6.86305 18.5822C6.50285 18.4856 6.11904 18.5361 5.79604 18.7225C5.47303 18.9089 5.2373 19.2159 5.14068 19.5761L4.70418 21.2063C4.65637 21.3846 4.64417 21.5707 4.66828 21.7538C4.69239 21.9369 4.75233 22.1135 4.84468 22.2734C4.93703 22.4334 5.05998 22.5735 5.20651 22.686C5.35304 22.7984 5.52028 22.8808 5.69868 22.9286L6.78487 23.22C6.9676 23.269 7.15833 23.2805 7.34564 23.2541C7.53295 23.2276 7.71299 23.1636 7.87499 23.0659C7.87544 23.2151 7.93513 23.358 8.04094 23.4631C8.14674 23.5683 8.28999 23.6271 8.43918 23.6267C8.58836 23.6262 8.73126 23.5665 8.83643 23.4607C8.9416 23.3549 9.00044 23.2117 8.99999 23.0625V22.5C8.99999 22.2855 9.01461 22.0749 9.04386 21.8683L11.9711 22.653C12.107 22.9438 12.323 23.1899 12.5938 23.3623C12.8646 23.5347 13.179 23.6262 13.5 23.6262C13.821 23.6262 14.1354 23.5347 14.4062 23.3623C14.677 23.1899 14.893 22.9438 15.0289 22.653L17.9561 21.8683C17.985 22.0749 17.9996 22.2855 18 22.5V23.0625C17.9992 23.2117 18.0578 23.3551 18.1628 23.4611C18.2677 23.5671 18.4105 23.6271 18.5597 23.6278C18.7089 23.6286 18.8522 23.57 18.9582 23.465C19.0643 23.3601 19.1242 23.2173 19.125 23.0681C19.44 23.2571 19.8292 23.3229 20.2123 23.22L21.2991 22.9292C21.4775 22.8814 21.6447 22.799 21.7912 22.6865C21.9378 22.5741 22.0607 22.4339 22.1531 22.274C22.2454 22.114 22.3053 21.9375 22.3294 21.7544C22.3536 21.5713 22.3414 21.3852 22.2936 21.2068L21.8565 19.5767C21.7599 19.2165 21.5241 18.9094 21.2011 18.723C20.8781 18.5366 20.4943 18.4862 20.1341 18.5827L19.0474 18.8736C18.7133 18.9631 18.4239 19.1731 18.2346 19.4625ZM9.33918 20.7821C9.64321 20.0474 10.1363 19.4063 10.7682 18.9238C11.4002 18.4412 12.1486 18.1346 12.9375 18.0349V20.3462C12.6852 20.4353 12.4578 20.5832 12.2739 20.7775C12.0901 20.9718 11.955 21.2071 11.88 21.4639L9.33918 20.7821ZM17.6608 20.7821C17.3568 20.0474 16.8637 19.4063 16.2317 18.9238C15.5998 18.4412 14.8513 18.1346 14.0625 18.0349V20.3462C14.571 20.5262 14.9681 20.9424 15.12 21.4639L17.6608 20.7821ZM13.5 22.5C13.6492 22.5 13.7922 22.4407 13.8977 22.3352C14.0032 22.2298 14.0625 22.0867 14.0625 21.9375C14.0625 21.7883 14.0032 21.6452 13.8977 21.5398C13.7922 21.4343 13.6492 21.375 13.5 21.375C13.3508 21.375 13.2077 21.4343 13.1022 21.5398C12.9968 21.6452 12.9375 21.7883 12.9375 21.9375C12.9375 22.0867 12.9968 22.2298 13.1022 22.3352C13.2077 22.4407 13.3508 22.5 13.5 22.5Z" fill="#F29912"/>
</svg>
