<svg width="21" height="21" viewBox="0 0 21 21" fill="none" xmlns="http://www.w3.org/2000/svg">
<path d="M10.5 1.75C10.9865 1.75 11.4625 1.7885 11.928 1.8655L10.29 3.5035C8.92446 3.54448 7.60076 3.98414 6.48206 4.7683C5.36336 5.55245 4.49858 6.64682 3.9943 7.9165C3.49002 9.18618 3.3683 10.5757 3.64413 11.9137C3.91997 13.2517 4.5813 14.4798 5.54662 15.4465C6.51193 16.4132 7.73903 17.0763 9.07665 17.3541C10.4143 17.6319 11.8039 17.5122 13.0743 17.0098C14.3448 16.5073 15.4404 15.6442 16.2262 14.5266C17.0119 13.409 17.4535 12.086 17.4965 10.7205L19.1363 9.0825C19.2121 9.54333 19.25 10.0158 19.25 10.5C19.25 12.2306 18.7368 13.9223 17.7754 15.3612C16.8139 16.8002 15.4473 17.9217 13.8485 18.5839C12.2496 19.2462 10.4903 19.4195 8.79296 19.0819C7.09563 18.7443 5.53653 17.9109 4.31282 16.6872C3.08911 15.4635 2.25575 13.9044 1.91813 12.207C1.58051 10.5097 1.75379 8.75037 2.41606 7.15152C3.07832 5.55267 4.19983 4.1861 5.63876 3.22464C7.07769 2.26318 8.76942 1.75 10.5 1.75ZM18.2718 2.7335C17.9607 2.42242 17.5915 2.17565 17.185 2.0073C16.7786 1.83894 16.343 1.75228 15.9031 1.75228C15.4632 1.75228 15.0276 1.83894 14.6212 2.0073C14.2148 2.17565 13.8455 2.42242 13.5345 2.7335L9.01251 7.2555C8.91728 7.35097 8.84541 7.46716 8.80251 7.595L7.0805 12.705C7.02335 12.8748 7.0147 13.0571 7.05552 13.2315C7.09635 13.4059 7.18504 13.5655 7.31161 13.6922C7.43818 13.819 7.59761 13.9079 7.77196 13.949C7.94631 13.9901 8.12866 13.9817 8.2985 13.9248L13.4085 12.2063C13.537 12.1636 13.6538 12.0917 13.7498 11.9963L18.2718 7.4725C18.5828 7.16146 18.8296 6.7922 18.998 6.38579C19.1663 5.97937 19.253 5.54378 19.253 5.10388C19.253 4.66397 19.1663 4.22838 18.998 3.82197C18.8296 3.41555 18.5828 3.04454 18.2718 2.7335Z" fill="#A587ED"/>
</svg>
