<svg width="21" height="21" viewBox="0 0 21 21" fill="none" xmlns="http://www.w3.org/2000/svg">
<path fill-rule="evenodd" clip-rule="evenodd" d="M6.34375 8.75C6.34375 7.64769 6.78164 6.59054 7.56109 5.81109C8.34054 5.03164 9.39769 4.59375 10.5 4.59375C11.6023 4.59375 12.6595 5.03164 13.4389 5.81109C14.2184 6.59054 14.6562 7.64769 14.6562 8.75C14.6562 9.85231 14.2184 10.9095 13.4389 11.6889C12.6595 12.4684 11.6023 12.9062 10.5 12.9062C9.39769 12.9062 8.34054 12.4684 7.56109 11.6889C6.78164 10.9095 6.34375 9.85231 6.34375 8.75ZM10.5 5.90625C9.74579 5.90625 9.02247 6.20586 8.48917 6.73917C7.95586 7.27247 7.65625 7.99579 7.65625 8.75C7.65625 9.50421 7.95586 10.2275 8.48917 10.7608C9.02247 11.2941 9.74579 11.5938 10.5 11.5938C11.2542 11.5938 11.9775 11.2941 12.5108 10.7608C13.0441 10.2275 13.3438 9.50421 13.3438 8.75C13.3438 7.99579 13.0441 7.27247 12.5108 6.73917C11.9775 6.20586 11.2542 5.90625 10.5 5.90625Z" fill="black"/>
<path fill-rule="evenodd" clip-rule="evenodd" d="M3.08366 7.74988C3.23362 5.93598 4.06 4.24474 5.39883 3.01175C6.73765 1.77877 8.49108 1.09415 10.3112 1.09375H10.6892C12.5092 1.09415 14.2627 1.77877 15.6015 3.01175C16.9403 4.24474 17.7667 5.93598 17.9167 7.74988C18.0835 9.77054 17.4592 11.777 16.1754 13.3464L11.9815 18.4747C11.8021 18.6942 11.5761 18.8711 11.3199 18.9925C11.0637 19.114 10.7837 19.177 10.5002 19.177C10.2166 19.177 9.93666 19.114 9.68047 18.9925C9.42428 18.8711 9.19827 18.6942 9.01879 18.4747L4.82491 13.3464C3.54114 11.777 2.91686 9.77054 3.08366 7.74988ZM10.3112 2.40625C8.8207 2.40688 7.38492 2.96769 6.28862 3.97744C5.19232 4.98719 4.51559 6.37212 4.39266 7.8575C4.25379 9.53916 4.77329 11.209 5.84166 12.5151L10.0355 17.6444C10.0919 17.7134 10.1629 17.769 10.2434 17.8072C10.3239 17.8453 10.4119 17.8652 10.501 17.8652C10.5901 17.8652 10.6781 17.8453 10.7586 17.8072C10.8391 17.769 10.9102 17.7134 10.9665 17.6444L15.1604 12.5151C16.2282 11.2088 16.747 9.53892 16.6077 7.8575C16.4847 6.37197 15.8079 4.98692 14.7114 3.97715C13.6149 2.96737 12.1789 2.40666 10.6883 2.40625H10.3112Z" fill="black"/>
</svg>
