<svg width="26" height="26" viewBox="0 0 26 26" fill="none" xmlns="http://www.w3.org/2000/svg">
<path d="M14.6252 8.66667H13.0002V14.0833L17.6368 16.835L18.4168 15.5242L14.6252 13.2708V8.66667ZM14.0835 3.25C11.4976 3.25 9.01768 4.27723 7.18921 6.10571C5.36073 7.93419 4.3335 10.4141 4.3335 13H1.0835L5.3735 17.3658L9.75016 13H6.50016C6.50016 10.9888 7.29912 9.05992 8.72127 7.63777C10.1434 6.21562 12.0723 5.41667 14.0835 5.41667C16.0947 5.41667 18.0236 6.21562 19.4457 7.63777C20.8679 9.05992 21.6668 10.9888 21.6668 13C21.6668 15.0112 20.8679 16.9401 19.4457 18.3622C18.0236 19.7844 16.0947 20.5833 14.0835 20.5833C11.9927 20.5833 10.0968 19.7275 8.73183 18.3517L7.1935 19.89C8.0944 20.8005 9.1677 21.5223 10.3507 22.0134C11.5337 22.5044 12.8026 22.7548 14.0835 22.75C16.6694 22.75 19.1493 21.7228 20.9778 19.8943C22.8063 18.0658 23.8335 15.5859 23.8335 13C23.8335 10.4141 22.8063 7.93419 20.9778 6.10571C19.1493 4.27723 16.6694 3.25 14.0835 3.25Z" fill="black"/>
</svg>
