<svg width="21" height="21" viewBox="0 0 21 21" fill="none" xmlns="http://www.w3.org/2000/svg">
<path d="M10.4998 0.916656C11.0327 0.916656 11.554 0.958823 12.0638 1.04316L10.2698 2.83716C8.77425 2.88204 7.32448 3.36357 6.09924 4.22241C4.874 5.08125 3.92685 6.27984 3.37455 7.67044C2.82224 9.06104 2.68892 10.5829 2.99103 12.0483C3.29313 13.5138 4.01745 14.8588 5.0747 15.9176C6.13195 16.9764 7.47592 17.7026 8.94093 18.0069C10.4059 18.3111 11.928 18.18 13.3194 17.6297C14.7108 17.0795 15.9107 16.1341 16.7713 14.9101C17.632 13.6861 18.1156 12.237 18.1627 10.7415L19.9586 8.94749C20.0416 9.45221 20.0832 9.96971 20.0832 10.5C20.0832 12.3954 19.5211 14.2482 18.4681 15.8242C17.4151 17.4002 15.9184 18.6285 14.1672 19.3538C12.4161 20.0792 10.4892 20.269 8.63023 19.8992C6.77124 19.5294 5.06365 18.6167 3.7234 17.2764C2.38315 15.9362 1.47042 14.2286 1.10065 12.3696C0.730874 10.5106 0.920656 8.58373 1.646 6.83261C2.37134 5.08148 3.59966 3.58477 5.17563 2.53174C6.7516 1.47871 8.60444 0.916656 10.4998 0.916656ZM19.0118 1.99382C18.6711 1.65312 18.2667 1.38285 17.8215 1.19846C17.3764 1.01406 16.8993 0.919157 16.4175 0.919157C15.9357 0.919157 15.4587 1.01406 15.0136 1.19846C14.5684 1.38285 14.164 1.65312 13.8233 1.99382L8.87068 6.94649C8.76638 7.05106 8.68767 7.17831 8.64068 7.31832L6.75467 12.915C6.69207 13.1009 6.6826 13.3006 6.72732 13.4916C6.77203 13.6827 6.86917 13.8574 7.00779 13.9962C7.14641 14.1351 7.32102 14.2324 7.51198 14.2774C7.70294 14.3224 7.90266 14.3132 8.08867 14.2509L13.6853 12.3687C13.826 12.322 13.954 12.2433 14.0591 12.1387L19.0118 7.18416C19.3525 6.8435 19.6227 6.43906 19.8071 5.99394C19.9915 5.54883 20.0864 5.07175 20.0864 4.58995C20.0864 4.10815 19.9915 3.63107 19.8071 3.18595C19.6227 2.74083 19.3525 2.33448 19.0118 1.99382Z" fill="black"/>
</svg>
