<svg width="45" height="52" viewBox="0 0 45 52" fill="none" xmlns="http://www.w3.org/2000/svg">
<path d="M20 31.8333V36.6667C16.1544 36.6667 12.4662 38.1943 9.74694 40.9136C7.02766 43.6329 5.49999 47.321 5.49999 51.1667H0.666656C0.666656 46.0391 2.70356 41.1216 6.32926 37.4959C9.95496 33.8702 14.8725 31.8333 20 31.8333ZM20 29.4167C11.9887 29.4167 5.49999 22.9279 5.49999 14.9167C5.49999 6.90541 11.9887 0.416656 20 0.416656C28.0112 0.416656 34.5 6.90541 34.5 14.9167C34.5 22.9279 28.0112 29.4167 20 29.4167ZM20 24.5833C25.3408 24.5833 29.6667 20.2575 29.6667 14.9167C29.6667 9.57582 25.3408 5.24999 20 5.24999C14.6592 5.24999 10.3333 9.57582 10.3333 14.9167C10.3333 20.2575 14.6592 24.5833 20 24.5833ZM41.75 39.0833H44.1667V51.1667H24.8333V39.0833H27.25V36.6667C27.25 34.7438 28.0138 32.8998 29.3735 31.5401C30.7331 30.1805 32.5772 29.4167 34.5 29.4167C36.4228 29.4167 38.2669 30.1805 39.6265 31.5401C40.9862 32.8998 41.75 34.7438 41.75 36.6667V39.0833ZM36.9167 39.0833V36.6667C36.9167 36.0257 36.662 35.411 36.2088 34.9578C35.7556 34.5046 35.1409 34.25 34.5 34.25C33.8591 34.25 33.2444 34.5046 32.7911 34.9578C32.3379 35.411 32.0833 36.0257 32.0833 36.6667V39.0833H36.9167Z" fill="#E91F63"/>
</svg>
