<svg width="64" height="68" viewBox="0 0 64 68" fill="none" xmlns="http://www.w3.org/2000/svg">
<g filter="url(#filter0_d_324_42)">
<path d="M60 42.5684L43.5918 58.916L35.6675 51.0059L38.3188 48.3691L43.5918 53.584L57.3488 39.9316L60 42.5684ZM30.3945 18.75H19.0826V15H30.3945V18.75ZM30.3945 26.25H19.0826V22.5H30.3945V26.25ZM19.0826 30H30.3945V33.75H19.0826V30ZM15.3119 18.75H11.5413V15H15.3119V18.75ZM15.3119 26.25H11.5413V22.5H15.3119V26.25ZM11.5413 30H15.3119V33.75H11.5413V30ZM34.1652 18.75V3.75H7.77065V56.25H34.1652V60H4V0H36.8459L53.0184 16.084V37.5L49.2478 41.25V18.75H34.1652ZM37.9358 15H46.5671L37.9358 6.41602V15Z" fill="#2F92E6"/>
<path d="M43.2402 53.9395L43.5924 54.2878L43.944 53.9389L57.3484 40.6364L59.2913 42.5687L43.5921 58.2099L36.3759 51.0065L38.3198 49.0733L43.2402 53.9395ZM49.2478 18.25H34.6652V3.75V3.25H34.1652H7.77065H7.27065V3.75V56.25V56.75H7.77065H33.6652V59.5H4.5V0.5H36.6396L52.5184 16.2919V37.2921L49.7478 40.0476V18.75V18.25H49.2478ZM37.4358 15V15.5H37.9358H46.5671H47.7789L46.9197 14.6455L38.2884 6.06149L37.4358 5.21358V6.41602V15ZM29.8945 18.25H19.5826V15.5H29.8945V18.25ZM29.8945 25.75H19.5826V23H29.8945V25.75ZM19.5826 30.5H29.8945V33.25H19.5826V30.5ZM14.8119 18.25H12.0413V15.5H14.8119V18.25ZM14.8119 25.75H12.0413V23H14.8119V25.75ZM12.0413 30.5H14.8119V33.25H12.0413V30.5Z" stroke="black"/>
</g>
<defs>
<filter id="filter0_d_324_42" x="0" y="0" width="64" height="68" filterUnits="userSpaceOnUse" color-interpolation-filters="sRGB">
<feFlood flood-opacity="0" result="BackgroundImageFix"/>
<feColorMatrix in="SourceAlpha" type="matrix" values="0 0 0 0 0 0 0 0 0 0 0 0 0 0 0 0 0 0 127 0" result="hardAlpha"/>
<feOffset dy="4"/>
<feGaussianBlur stdDeviation="2"/>
<feComposite in2="hardAlpha" operator="out"/>
<feColorMatrix type="matrix" values="0 0 0 0 0 0 0 0 0 0 0 0 0 0 0 0 0 0 0.25 0"/>
<feBlend mode="normal" in2="BackgroundImageFix" result="effect1_dropShadow_324_42"/>
<feBlend mode="normal" in="SourceGraphic" in2="effect1_dropShadow_324_42" result="shape"/>
</filter>
</defs>
</svg>
