<svg width="42" height="34" viewBox="0 0 42 34" fill="none" xmlns="http://www.w3.org/2000/svg">
<path d="M4.33332 33.6667C3.18749 33.6667 2.20693 33.259 1.39166 32.4438C0.576379 31.6285 0.168045 30.6472 0.166656 29.5V4.5C0.166656 3.35417 0.57499 2.37361 1.39166 1.55834C2.20832 0.743058 3.18888 0.334725 4.33332 0.333336H37.6667C38.8125 0.333336 39.7937 0.741669 40.6104 1.55834C41.4271 2.375 41.8347 3.35556 41.8333 4.5V29.5C41.8333 30.6458 41.4257 31.6271 40.6104 32.4438C39.7951 33.2604 38.8139 33.6681 37.6667 33.6667H4.33332ZM21 19.0833L4.33332 8.66667V29.5H37.6667V8.66667L21 19.0833ZM21 14.9167L37.6667 4.5H4.33332L21 14.9167ZM4.33332 8.66667V4.5V29.5V8.66667Z" fill="white"/>
</svg>
