<svg width="40" height="40" viewBox="0 0 40 40" fill="none" xmlns="http://www.w3.org/2000/svg">
<path d="M30.235 7.465C29.7801 7.465 29.3354 7.59989 28.9572 7.85262C28.5789 8.10535 28.2842 8.46456 28.1101 8.88483C27.936 9.3051 27.8904 9.76755 27.9792 10.2137C28.0679 10.6599 28.287 11.0697 28.6087 11.3913C28.9303 11.713 29.3401 11.9321 29.7863 12.0208C30.2324 12.1096 30.6949 12.064 31.1152 11.8899C31.5354 11.7158 31.8946 11.421 32.1474 11.0428C32.4001 10.6646 32.535 10.2199 32.535 9.765C32.535 9.155 32.2927 8.56999 31.8613 8.13865C31.43 7.70732 30.845 7.465 30.235 7.465ZM39.0517 12.1033C39.014 10.5131 38.7162 8.93978 38.17 7.44583C37.6848 6.16655 36.926 5.00872 35.9467 4.05333C34.9976 3.0709 33.8375 2.31717 32.5542 1.84917C31.0643 1.28597 29.4891 0.981318 27.8967 0.948332C25.865 0.833332 25.2133 0.833332 20 0.833332C14.7867 0.833332 14.135 0.833332 12.1033 0.948332C10.5109 0.981318 8.93574 1.28597 7.44583 1.84917C6.16546 2.32307 5.00661 3.07599 4.05333 4.05333C3.07089 5.00242 2.31717 6.16251 1.84916 7.44583C1.28597 8.93574 0.981314 10.5109 0.948328 12.1033C0.833328 14.135 0.833328 14.7867 0.833328 20C0.833328 25.2133 0.833328 25.865 0.948328 27.8967C0.981314 29.4891 1.28597 31.0643 1.84916 32.5542C2.31717 33.8375 3.07089 34.9976 4.05333 35.9467C5.00661 36.924 6.16546 37.6769 7.44583 38.1508C8.93574 38.714 10.5109 39.0187 12.1033 39.0517C14.135 39.1667 14.7867 39.1667 20 39.1667C25.2133 39.1667 25.865 39.1667 27.8967 39.0517C29.4891 39.0187 31.0643 38.714 32.5542 38.1508C33.8375 37.6828 34.9976 36.9291 35.9467 35.9467C36.9285 34.9933 37.6876 33.8349 38.17 32.5542C38.7162 31.0602 39.014 29.4869 39.0517 27.8967C39.0517 25.865 39.1667 25.2133 39.1667 20C39.1667 14.7867 39.1667 14.135 39.0517 12.1033ZM35.6017 27.6667C35.5881 28.8833 35.3677 30.0889 34.95 31.2317C34.644 32.0658 34.1524 32.8195 33.5125 33.4358C32.8904 34.0688 32.1384 34.5593 31.3083 34.8733C30.1655 35.2911 28.96 35.5114 27.7433 35.525C25.8267 35.6208 25.1175 35.64 20.0767 35.64C15.0358 35.64 14.3267 35.64 12.41 35.525C11.1466 35.5498 9.88853 35.3553 8.69166 34.95C7.89852 34.619 7.18115 34.1299 6.58333 33.5125C5.94716 32.8968 5.46178 32.1424 5.165 31.3083C4.6955 30.1495 4.4359 28.9164 4.39833 27.6667C4.39833 25.75 4.28333 25.0408 4.28333 20C4.28333 14.9592 4.28333 14.25 4.39833 12.3333C4.40532 11.0894 4.63243 9.85646 5.06916 8.69167C5.40659 7.88266 5.9245 7.16151 6.58333 6.58333C7.16393 5.92245 7.88404 5.39873 8.69166 5.05C9.85968 4.62733 11.0912 4.40695 12.3333 4.39833C14.25 4.39833 14.9592 4.28333 20 4.28333C25.0408 4.28333 25.75 4.28333 27.6667 4.39833C28.8833 4.41192 30.0889 4.63228 31.2317 5.05C32.1027 5.37325 32.8844 5.89879 33.5125 6.58333C34.1387 7.17371 34.6292 7.89307 34.95 8.69167C35.3764 9.85869 35.5969 11.0909 35.6017 12.3333C35.6975 14.25 35.7167 14.9592 35.7167 20C35.7167 25.0408 35.6975 25.75 35.6017 27.6667ZM20 10.1675C18.0561 10.1713 16.157 10.7512 14.5426 11.8339C12.9282 12.9166 11.6709 14.4535 10.9296 16.2505C10.1884 18.0475 9.99638 20.0239 10.3779 21.9299C10.7595 23.836 11.6974 25.5862 13.0733 26.9594C14.4492 28.3326 16.2012 29.2671 18.108 29.6449C20.0148 30.0228 21.9908 29.827 23.7863 29.0822C25.5818 28.3374 27.1163 27.0772 28.1959 25.4606C29.2755 23.8441 29.8517 21.9439 29.8517 20C29.8542 18.7064 29.601 17.4252 29.1065 16.2298C28.6121 15.0345 27.8862 13.9487 26.9707 13.0349C26.0551 12.1211 24.9679 11.3974 23.7716 10.9053C22.5753 10.4132 21.2935 10.1624 20 10.1675ZM20 26.3825C18.7377 26.3825 17.5037 26.0082 16.4541 25.3069C15.4045 24.6055 14.5864 23.6087 14.1033 22.4425C13.6203 21.2762 13.4939 19.9929 13.7401 18.7548C13.9864 17.5168 14.5943 16.3795 15.4869 15.4869C16.3795 14.5943 17.5167 13.9864 18.7548 13.7401C19.9929 13.4939 21.2762 13.6203 22.4425 14.1033C23.6087 14.5864 24.6055 15.4045 25.3069 16.4541C26.0082 17.5037 26.3825 18.7377 26.3825 20C26.3825 20.8382 26.2174 21.6681 25.8967 22.4425C25.5759 23.2168 25.1058 23.9204 24.5131 24.5131C23.9204 25.1058 23.2168 25.5759 22.4425 25.8967C21.6681 26.2174 20.8382 26.3825 20 26.3825Z" fill="white"/>
</svg>
