<svg width="52" height="60" viewBox="0 0 52 60" fill="none" xmlns="http://www.w3.org/2000/svg">
<path d="M26 0.399994C22.0748 0.399994 18.3104 1.95928 15.5348 4.73481C12.7593 7.51035 11.2 11.2748 11.2 15.2C11.2 19.1252 12.7593 22.8896 15.5348 25.6652C18.3104 28.4407 22.0748 30 26 30C29.9252 30 33.6896 28.4407 36.4652 25.6652C39.2407 22.8896 40.8 19.1252 40.8 15.2C40.8 11.2748 39.2407 7.51035 36.4652 4.73481C33.6896 1.95928 29.9252 0.399994 26 0.399994ZM7.53331 33.7C6.55873 33.6956 5.59288 33.8838 4.69122 34.2537C3.78957 34.6236 2.96986 35.168 2.27918 35.8556C1.58849 36.5432 1.04043 37.3604 0.666466 38.2604C0.292501 39.1604 0.0999962 40.1254 0.100006 41.1C0.100006 47.3567 3.18211 52.0742 7.99951 55.1489C12.7429 58.1718 19.1365 59.6 26 59.6C32.8635 59.6 39.2571 58.1718 44.0005 55.1489C48.8179 52.0779 51.9 47.353 51.9 41.1C51.9 39.1374 51.1204 37.2552 49.7326 35.8674C48.3448 34.4796 46.4626 33.7 44.5 33.7H7.53331Z" fill="#FD9603"/>
</svg>
