<svg width="49" height="55" viewBox="0 0 49 55" fill="none" xmlns="http://www.w3.org/2000/svg">
<path fill-rule="evenodd" clip-rule="evenodd" d="M10.8125 5.44792C10.8125 4.78331 17.6806 0.125 24.5 0.125C31.3194 0.125 38.1875 4.78331 38.1875 5.44792C38.1875 7.82042 37.935 9.22567 37.7221 9.99065C37.5807 10.4925 37.1107 10.7708 36.5891 10.7708H12.4109C11.8892 10.7708 11.4193 10.4925 11.2779 9.99065C11.065 9.22567 10.8125 7.82042 10.8125 5.44792ZM22.2187 4.6875C21.8154 4.6875 21.4286 4.84773 21.1434 5.13294C20.8581 5.41815 20.6979 5.80498 20.6979 6.20833C20.6979 6.61168 20.8581 6.99851 21.1434 7.28372C21.4286 7.56894 21.8154 7.72917 22.2187 7.72917H26.7812C27.1846 7.72917 27.5714 7.56894 27.8566 7.28372C28.1418 6.99851 28.3021 6.61168 28.3021 6.20833C28.3021 5.80498 28.1418 5.41815 27.8566 5.13294C27.5714 4.84773 27.1846 4.6875 26.7812 4.6875H22.2187ZM12.3911 20.2274C7.32674 18.6609 8.60424 15.8626 10.5357 13.8125H38.8871C40.4322 15.7865 41.2611 18.4495 36.5906 20.0434C36.6413 20.4945 36.6667 20.9523 36.6667 21.4167C36.666 23.0641 36.3308 24.6943 35.6813 26.2084C35.0318 27.7224 34.0816 29.0888 32.8882 30.2246C31.6949 31.3604 30.2833 32.2421 28.7391 32.8161C27.1949 33.3901 25.5501 33.6445 23.9046 33.5639C22.2592 33.4833 20.6472 33.0693 19.1664 32.3471C17.6857 31.6249 16.3671 30.6095 15.2905 29.3625C14.2139 28.1154 13.4018 26.6627 12.9034 25.0924C12.405 23.5222 12.2307 21.867 12.3911 20.2274ZM24.0863 21.4167C28.1044 21.4167 31.219 21.2037 33.6067 20.8327C33.6189 21.0253 33.625 21.22 33.625 21.4167C33.6239 22.6345 33.3791 23.8397 32.9049 24.9614C32.4308 26.0831 31.7369 27.0986 30.8642 27.9479C29.9915 28.7973 28.9575 29.4633 27.8234 29.9069C26.6892 30.3504 25.4778 30.5624 24.2604 30.5304C23.043 30.4985 21.8443 30.2231 20.735 29.7207C19.6257 29.2182 18.6282 28.4988 17.8013 27.6048C16.9744 26.7108 16.3347 25.6603 15.9201 24.5153C15.5055 23.3702 15.3243 22.1538 15.3872 20.9376C17.6121 21.2448 20.4637 21.4167 24.0863 21.4167ZM37.3008 43.6208C35.9254 41.4744 34.032 39.7086 31.795 38.4861C29.558 37.2635 27.0493 36.6235 24.5 36.625C21.9497 36.6231 19.4399 37.2632 17.202 38.4863C14.9641 39.7095 13.0701 41.4763 11.6946 43.6239C11.1829 42.8385 10.3992 42.2698 9.49393 42.027L6.55568 41.2407C5.5818 40.9796 4.54408 41.1161 3.67078 41.62C2.79749 42.124 2.16013 42.9542 1.89889 43.928L0.718724 48.3354C0.589471 48.8177 0.556492 49.3208 0.621671 49.8159C0.68685 50.3109 0.848911 50.7883 1.0986 51.2207C1.34828 51.6532 1.6807 52.0322 2.07688 52.3361C2.47305 52.6401 2.92522 52.863 3.40756 52.9922L6.34429 53.78C6.83834 53.9124 7.35401 53.9437 7.86045 53.8721C8.36689 53.8005 8.85367 53.6274 9.29166 53.3633C9.29287 53.7666 9.45426 54.153 9.74033 54.4373C10.0264 54.7217 10.4137 54.8808 10.8171 54.8796C11.2204 54.8783 11.6068 54.717 11.8911 54.4309C12.1755 54.1448 12.3345 53.7575 12.3333 53.3542V51.8333C12.3333 51.2534 12.3729 50.6841 12.452 50.1254L20.3664 52.247C20.7337 53.0333 21.3178 53.6986 22.05 54.1647C22.7821 54.6307 23.6321 54.8783 24.5 54.8783C25.3679 54.8783 26.2178 54.6307 26.95 54.1647C27.6822 53.6986 28.2662 53.0333 28.6336 52.247L36.548 50.1254C36.6261 50.6841 36.6656 51.2534 36.6667 51.8333V53.3542C36.6646 53.7575 36.8229 54.1451 37.1067 54.4318C37.3905 54.7184 37.7765 54.8806 38.1799 54.8826C38.5832 54.8846 38.9709 54.7263 39.2575 54.4425C39.5441 54.1587 39.7063 53.7727 39.7083 53.3694C40.56 53.8804 41.6124 54.0583 42.6481 53.78L45.5863 52.9937C46.0687 52.8645 46.5209 52.6416 46.917 52.3377C47.3132 52.0337 47.6456 51.6547 47.8953 51.2223C48.145 50.7898 48.3071 50.3124 48.3722 49.8174C48.4374 49.3223 48.4044 48.8193 48.2752 48.3369L47.0935 43.9296C46.8323 42.9557 46.1949 42.1255 45.3216 41.6216C44.4483 41.1176 43.4106 40.9812 42.4367 41.2422L39.4985 42.0285C38.5952 42.2705 37.8128 42.8384 37.3008 43.6208ZM13.2504 47.1887C14.0724 45.2023 15.4054 43.4688 17.1141 42.1642C18.8228 40.8597 20.8463 40.0305 22.9792 39.761V46.0101C22.2972 46.2511 21.6822 46.6507 21.1851 47.1762C20.688 47.7016 20.3229 48.3377 20.12 49.032L13.2504 47.1887ZM35.7496 47.1887C34.9276 45.2023 33.5945 43.4688 31.8858 42.1642C30.1771 40.8597 28.1536 40.0305 26.0208 39.761V46.0101C27.3957 46.4967 28.4694 47.6221 28.88 49.032L35.7496 47.1887ZM24.5 51.8333C24.9033 51.8333 25.2902 51.6731 25.5754 51.3879C25.8606 51.1027 26.0208 50.7158 26.0208 50.3125C26.0208 49.9091 25.8606 49.5223 25.5754 49.2371C25.2902 48.9519 24.9033 48.7917 24.5 48.7917C24.0966 48.7917 23.7098 48.9519 23.4246 49.2371C23.1394 49.5223 22.9792 49.9091 22.9792 50.3125C22.9792 50.7158 23.1394 51.1027 23.4246 51.3879C23.7098 51.6731 24.0966 51.8333 24.5 51.8333Z" fill="#029589"/>
</svg>
